<?xml version="1.0" encoding="utf-8"?>
<!-- Generator: Adobe Illustrator 24.0.2, SVG Export Plug-In . SVG Version: 6.00 Build 0)  -->
<svg version="1.1" id="Layer_1" xmlns="http://www.w3.org/2000/svg" xmlns:xlink="http://www.w3.org/1999/xlink" x="0px" y="0px"
	 viewBox="0 0 400 400" style="enable-background:new 0 0 400 400;" xml:space="preserve">
<style type="text/css">
	.st0{fill:#0095D3;}
	.st1{fill:#85C81A;}
	.st2{fill:#00D4B8;}
</style>
<title>secure state</title>
<g id="c3749852-1a32-4d54-ab6a-dea8ab30b5c7">
	<path class="st0" d="M175.9,246.5H167"/>
	<path class="st0" d="M167,262.5h8.9"/>
	<path class="st0" d="M167,246.5H80.9C52.3,246.4,29,223.2,29,194.6v-1.4c0.2-23.9,16.6-44.7,39.8-50.4l1.6-0.4
		c2.9-0.7,4.9-3.4,4.6-6.4l-0.1-1.6c-0.2-2.2-0.3-4.2-0.3-6C74.6,88.4,107,56,146.9,56c31,0,58.6,19.8,68.5,49.2l0.4,1.3
		c0.8,2.5,3.2,4.1,5.8,4.1h30.4c11.9,0,23.6,3.2,33.9,9.1c3.9,2,8.7,0.5,10.8-3.4c1.9-3.7,0.7-8.2-2.8-10.5
		c-12.7-7.4-27.2-11.3-41.9-11.3h-19.5c-2.4,0-4.5-1.4-5.5-3.6c-19.8-42.7-69.9-62.6-113.8-44.5c-33.1,13.6-54.7,45.9-54.7,81.8v0.8
		c-27.2,9.6-45.5,35.2-45.6,64.1v1.4c0,37.5,30.4,67.9,67.9,67.9H167"/>
</g>
<path class="st1" d="M372.2,134.6H193c-7.1,0-12.8,5.7-12.8,12.8v140.8c0,7.1,5.7,12.8,12.8,12.8h179.2c7.1,0,12.8-5.7,12.8-12.8
	V147.4C385,140.3,379.3,134.6,372.2,134.6z M193,147.4h179.2v14.1H193 M193,161.4v-14.1 M372.2,161.4v126.7H193V161.4 M372.2,171.7"
	/>
<rect x="270.3" y="229" class="st1" width="38.4" height="12.8"/>
<polygon class="st1" points="208.9,175.2 252.3,195.2 208.9,215.1 208.9,229.2 270.3,200.9 270.3,189.3 208.9,161.1 "/>
<g id="_x32_37ed690-76a0-4605-881e-daa05dedb06a">
	<path class="st2" d="M166.3,207.7v-47.6h-47.6c-3.7,0-6.8,3.1-6.8,6.8c0,3.7,3.1,6.8,6.8,6.8h24.1l-47.8,43.9
		c-2.7,2.6-2.7,7-0.2,9.7c2.5,2.6,6.6,2.7,9.3,0.3l48.5-44.5v24.7c0,3.7,3.1,6.8,6.8,6.8C163.2,214.5,166.3,211.4,166.3,207.7
		L166.3,207.7z"/>
</g>
</svg>
